<svg width="29" height="20" viewBox="0 0 29 20" fill="none" xmlns="http://www.w3.org/2000/svg">
<path d="M0.474141 17.17V2.4C0.474141 1.51333 1.08081 0.906663 2.29414 0.579998C2.90081 0.439997 3.50747 0.369996 4.11414 0.369996C4.76747 0.369996 5.58414 0.509997 6.56414 0.789999C7.54414 1.02333 8.15081 1.56 8.38414 2.4L12.5841 17.17C12.5841 18.01 11.5808 18.6167 9.57414 18.99C8.59414 19.1767 7.59081 19.27 6.56414 19.27C5.53747 19.27 4.51081 19.1767 3.48414 18.99C1.47747 18.6167 0.474141 18.01 0.474141 17.17ZM16.5741 17.17V2.4C16.5741 1.51333 17.1808 0.906663 18.3941 0.579998C19.0008 0.439997 19.6075 0.369996 20.2141 0.369996C20.8675 0.369996 21.6841 0.509997 22.6641 0.789999C23.6441 1.02333 24.2508 1.56 24.4841 2.4L28.6841 17.17C28.6841 18.01 27.6808 18.6167 25.6741 18.99C24.6941 19.1767 23.6908 19.27 22.6641 19.27C21.6375 19.27 20.6108 19.1767 19.5841 18.99C17.5775 18.6167 16.5741 18.01 16.5741 17.17Z" fill="#FF5864"/>
</svg>
